<svg xmlns="http://www.w3.org/2000/svg" viewBox="22 14 1291 240" width="1291" height="240" role="img" aria-label="GroundTruth">
  <title>GroundTruth</title>
  <style>
    .st1{fill:#0F5540} .st2{fill:#1E7A5A} .st3{fill:#F7F5F0} .st4{fill:#1E7A5A}
  </style>
  <path class="st1" d="m 215,59.3 c -7.6,17.6 -17.8,30.6 -25.3,35.4 -9.3,10.6 -26.4,29.8 -38.9,47.8 -12.1,17.5 -19.7,34 -19.7,34 60.1,4.5 82.9,-23.6 93.1,-68.8 2.5,-19.9 -0.9,-56.3 -4.1,-57 -0.4,-0.2 -2.7,3.9 -5.1,8.6 z"/>
  <path class="st2" d="m 212.6,53 c -3.3,1.9 -12.8,5.7 -20.8,8.3 -36.3,11.5 -48.6,17.2 -59.3,27 -16.4,15.1 -23.6,37.6 -19.8,61.6 1.9,12.3 1.4,17.4 7.2,8.6 15.4,-23.2 41.81482,-48.98518 65.31482,-60.885183 C 192.41482,94.014817 197.9,88.4 205.3,77.8 c 5.4,-7.5 15.3,-26.6 14.8,-27.4 -0.5,-0.1 -4.2,0.8 -7.5,2.6 z"/>
  <path class="st3" d="m 173.2,51 7.3,-2.6 c -11.7,-4.5 -35.1,-13.5 -46.9,-18 1.1,-7.7 -3.5,-16.3 -13.7,-16.3 -11.3,0 -15.6,10.5 -13.1,18.7 L 76,52.1 47,70.2 C 44.7,67 41,64.8 35.9,64.8 18.3,64.9 17.5,90.3 33.4,92.8 v 33.2 32.1 c -15.9,2.5 -15.1,27.9 2.5,28 3.8,0 6.7,-1.2 9,-3.1 l 8.6,7.2 11.1,9.4 c 0.8,-1 2.4,-2.9 3.2,-3.8 -4.8,-4 -13.9,-11.7 -19.8,-16.6 1.1,-2.1 1.7,-4.4 1.7,-6.8 l 23.7,-5.5 12.5,-2.9 3.7,20.8 c 1.2,-0.2 3.7,-0.7 4.9,-0.9 -1,-5.5 -2.3,-13 -3.7,-21.1 l 7.6,-1.8 c -0.3,-1.2 -0.8,-3.7 -1.1,-4.9 -2.1,0.5 -4.6,1.1 -7.4,1.7 -2.1,-11.9 -4.3,-24.4 -5.7,-32.6 6.2,-2.1 9.2,-8.1 9,-13.9 l 7.8,-2.4 1,-5.5 c -2.3,0.7 -6.6,2 -9.8,3 -0.9,-2.3 -2.3,-4.3 -4.2,-5.8 l 14.2,-29.1 14.5,-29.6 c 1.1,0.2 2.2,0.4 3.4,0.4 2,0 3.8,-0.4 5.4,-1 l 6,10.4 7,12.1 c 1.1,-0.6 3.2,-1.9 4.3,-2.5 -3.2,-5.6 -9.4,-16.3 -13.1,-22.6 1,-1 1.9,-2.2 2.5,-3.4 z M 69.5,122.2 c -6.8,9.4 -19.7,27.1 -27,37.2 -1.2,-0.6 -2.6,-1 -4.1,-1.3 0,-17.3 0,-48.6 0,-65.3 2.8,-0.4 5,-1.5 6.8,-3.1 l 10.7,9 10.3,8.6 c -1.6,5.1 -0.5,11.1 3.3,14.9 z M 85,159.1 c -12,2.8 -26.7,6.2 -36,8.3 -0.5,-1.8 -1.4,-3.4 -2.6,-4.9 L 59.5,144.4 73.6,125 c 1.6,0.7 3.4,1.1 5.5,1.1 l 5.1,29 z M 83.4,98.5 c -1.3,-0.3 -2.6,-0.6 -4.1,-0.6 -4.9,0 -8.5,2 -10.8,4.9 C 62.7,97.9 53.3,90 48.2,85.7 c 1.6,-3.3 2,-7.3 1,-10.9 16.3,-10.2 44.1,-27.6 60,-37.5 0.8,1 1.7,1.9 2.8,2.6 C 104.5,55.2 91,83 83.4,98.5 Z"/>
  <circle class="st4" cx="120" cy="28.200001" r="8.6999998"/>
  <circle class="st4" cx="35.900002" cy="78.900002" r="8.6999998"/>
  <circle class="st4" cx="79.300003" cy="112" r="8.6999998"/>
  <circle class="st4" cx="35.900002" cy="172" r="8.6999998"/>
  <path class="st3" d="M 218.5,184.4 V 173 159.4 l -5,6.2 V 184 c -3.5,0.4 -6.6,2 -8.9,4.5 l -10.4,-7.4 -5.3,2.3 7,4.9 6.1,4.3 c -0.7,1.6 -1,3.4 -1,5.3 0,1 0.1,2 0.3,3 l -32.7,7.5 -35,8.1 0.6,2.4 0.6,2.4 35,-8.1 33.5,-7.7 c 2.5,3.9 6.9,6.4 11.8,6.4 7.8,0 14.1,-6.3 14.1,-14.1 -0.1,-6.4 -4.6,-11.9 -10.7,-13.4 z"/>
  <circle class="st4" cx="215" cy="198" r="8.6999998"/>
  <path class="st3" d="M 224.66211 34.335938 C 223.60254 34.304663 221.80625 36.111719 218 39.699219 C 211 45.199219 197.09922 51.4 178.69922 57 C 139.99922 68.7 122.19922 80.8 111.19922 102.5 C 102.19922 120.4 100.30078 144.79961 107.30078 166.59961 L 110.09961 175.19922 L 107.09961 182.69922 C 105.49961 186.49922 103.19922 190.79922 102.69922 192.19922 C 100.49922 191.69922 98.3 191.5 96 191.5 C 78.9 191.5 65 205.4 65 222.5 C 65 239.6 78.9 253.5 96 253.5 C 113.1 253.5 127 239.6 127 222.5 C 127 211.3 120.99961 201.5 112.09961 196 C 126.09961 148.5 190 94.699219 190 94.699219 C 190 94.699219 174.80039 102.89961 162.90039 111.59961 C 146.60039 123.09961 134.30039 136.00078 120.40039 157.30078 C 116.60039 163.10078 116.6 164.10039 115.5 161.40039 C 111.8 151.60039 111.00039 132.79922 113.90039 121.19922 C 120.80039 93.699219 137.7 78.900781 175 67.300781 C 180.8 65.500781 189.1 62.9 193.5 61.5 C 197.9 60.1 205.50039 56.999609 210.40039 54.599609 C 215.40039 52.199609 219.69961 50.500391 220.09961 50.900391 C 223.99961 54.900391 226.19961 97.399219 223.09961 110.69922 C 212.99961 154.99922 188.00078 176.10078 145.30078 176.30078 L 131.09961 176.40039 L 126.59961 185 C 126.59961 185 132.80078 185.40039 143.30078 185.40039 C 167.50078 185.40039 185.49922 179.8 201.19922 167.5 C 230.99922 144.1 241.60078 94.699219 227.80078 43.699219 C 226.16953 37.455469 226.02441 34.376147 224.66211 34.335938 z M 96 201.19922 A 21.1 21.1 0 0 1 117.09961 222.30078 A 21.1 21.1 0 0 1 96 243.40039 A 21.1 21.1 0 0 1 74.900391 222.30078 A 21.1 21.1 0 0 1 96 201.19922 z "/>
  <circle class="st4" cx="96" cy="222.3" r="13.8"/>
  <g transform="translate(253.3,4.26) scale(0.6317)">
    <path fill="#F7F5F0" d="M 119.46,302.6 Q 98.14,302.6 80.2,295.84 62.52,288.82 49.26,276.34 36,263.6 28.72,246.44 21.44,229.28 21.44,209 q 0,-20.28 7.28,-37.44 7.28,-17.16 20.54,-29.64 13.52,-12.74 31.46,-19.5 17.94,-7.02 39.26,-7.02 23.14,0 41.6,7.54 18.72,7.54 31.46,22.1 l -21.32,20.8 q -10.66,-10.66 -23.14,-15.6 -12.22,-5.2 -27.04,-5.2 -14.3,0 -26.52,4.68 -12.22,4.68 -21.06,13.26 -8.84,8.58 -13.78,20.28 -4.68,11.7 -4.68,25.74 0,13.78 4.68,25.48 4.94,11.7 13.78,20.54 8.84,8.58 20.8,13.26 11.96,4.68 26.52,4.68 13.52,0 26,-4.16 12.74,-4.42 24.18,-14.56 l 19.24,25.22 q -14.3,11.44 -33.28,17.42 -18.72,5.72 -37.96,5.72 z m 71.24,-23.14 -31.98,-4.42 V 206.92 H 190.7 Z M 227.03983,300 V 161.16 h 30.94 v 38.22 l -3.64,-11.18 q 6.24,-14.04 19.5,-21.32 13.52,-7.28 33.54,-7.28 v 30.94 q -2.08,-0.52 -3.9,-0.52 -1.82,-0.26 -3.64,-0.26 -18.46,0 -29.38,10.92 -10.92,10.66 -10.92,31.98 V 300 Z m 163.99948,1.82 q -21.32,0 -37.96,-9.1 -16.64,-9.36 -26.26,-25.48 -9.62,-16.12 -9.62,-36.66 0,-20.8 9.62,-36.66 9.62,-16.12 26.26,-25.22 16.64,-9.1 37.96,-9.1 21.58,0 38.22,9.1 16.9,9.1 26.26,24.96 9.62,15.86 9.62,36.92 0,20.54 -9.62,36.66 -9.36,16.12 -26.26,25.48 -16.64,9.1 -38.22,9.1 z m 0,-27.82 q 11.96,0 21.32,-5.2 9.36,-5.2 14.56,-15.08 5.46,-9.88 5.46,-23.14 0,-13.52 -5.46,-23.14 -5.2,-9.88 -14.56,-15.08 -9.36,-5.2 -21.06,-5.2 -11.96,0 -21.32,5.2 -9.1,5.2 -14.56,15.08 -5.46,9.62 -5.46,23.14 0,13.26 5.46,23.14 5.46,9.88 14.56,15.08 9.36,5.2 21.06,5.2 z m 159.05961,27.82 q -17.68,0 -31.2,-6.5 -13.52,-6.76 -21.06,-20.28 -7.54,-13.78 -7.54,-34.58 v -79.3 h 32.5 v 74.88 q 0,18.72 8.32,28.08 8.58,9.1 24.18,9.1 11.44,0 19.76,-4.68 8.58,-4.68 13.26,-14.04 4.94,-9.36 4.94,-23.14 v -70.2 h 32.5 V 300 h -30.94 v -37.44 l 5.46,11.44 q -7.02,13.52 -20.54,20.8 -13.52,7.02 -29.64,7.02 z M 663.39886,300 V 161.16 h 30.94 v 37.44 l -5.46,-11.44 q 7.28,-13.26 21.06,-20.28 14.04,-7.28 32.24,-7.28 16.64,0 29.64,6.5 13.26,6.5 20.8,20.02 7.54,13.26 7.54,34.32 V 300 h -32.5 v -75.4 q 0,-18.46 -8.84,-27.56 -8.58,-9.1 -24.18,-9.1 -11.44,0 -20.28,4.68 -8.84,4.68 -13.78,14.04 -4.68,9.1 -4.68,23.14 V 300 Z m 232.11968,1.82 q -20.02,0 -36.14,-8.84 -15.86,-9.1 -24.96,-24.96 -9.1,-15.86 -9.1,-37.44 0,-21.58 9.1,-37.44 9.1,-15.86 24.96,-24.7 16.12,-8.84 36.14,-8.84 17.42,0 31.2,7.8 13.78,7.54 21.84,23.14 8.06,15.6 8.06,40.04 0,24.18 -7.8,40.04 -7.8,15.6 -21.58,23.4 -13.78,7.8 -31.72,7.8 z m 3.9,-27.82 q 11.7,0 20.8,-5.2 9.36,-5.2 14.82,-15.08 5.72,-9.88 5.72,-23.14 0,-13.52 -5.72,-23.14 -5.46,-9.88 -14.82,-15.08 -9.1,-5.2 -20.8,-5.2 -11.7,0 -21.06,5.2 -9.1,5.2 -14.82,15.08 -5.46,9.62 -5.46,23.14 0,13.26 5.46,23.14 5.72,9.88 14.82,15.08 9.36,5.2 21.06,5.2 z m 42.12,26 v -32.76 l 1.3,-36.92 -2.6,-36.92 v -86.32 h 32.24 V 300 Z"/>
    <path fill="#1e7a5a" d="M 1050.4181,300 V 146.6 H 990.09811 V 118 h 154.43999 v 28.6 h -60.32 V 300 Z m 108.0997,0 V 161.16 h 30.94 v 38.22 l -3.64,-11.18 q 6.24,-14.04 19.5,-21.32 13.52,-7.28 33.54,-7.28 v 30.94 q -2.08,-0.52 -3.9,-0.52 -1.82,-0.26 -3.64,-0.26 -18.46,0 -29.38,10.92 -10.92,10.66 -10.92,31.98 V 300 Z m 162.9595,1.82 q -17.68,0 -31.2,-6.5 -13.52,-6.76 -21.06,-20.28 -7.54,-13.78 -7.54,-34.58 v -79.3 h 32.5 v 74.88 q 0,18.72 8.32,28.08 8.58,9.1 24.18,9.1 11.44,0 19.76,-4.68 8.58,-4.68 13.26,-14.04 4.94,-9.36 4.94,-23.14 v -70.2 h 32.5 V 300 h -30.94 v -37.44 l 5.46,11.44 q -7.02,13.52 -20.54,20.8 -13.52,7.02 -29.64,7.02 z m 165.56,0 q -22.88,0 -35.36,-11.7 -12.48,-11.96 -12.48,-35.1 V 130.48 h 32.5 v 123.76 q 0,9.88 4.94,15.34 5.2,5.46 14.3,5.46 10.92,0 18.2,-5.72 l 9.1,23.14 q -5.72,4.68 -14.04,7.02 -8.32,2.34 -17.16,2.34 z m -70.72,-114.66 v -26 h 92.56 v 26 z m 123.7,112.84 V 107.08 h 32.5 v 91.52 l -7.02,-11.44 q 7.28,-13.26 21.06,-20.28 14.04,-7.28 32.24,-7.28 16.64,0 29.64,6.5 13.26,6.5 20.8,20.02 7.54,13.26 7.54,34.32 V 300 h -32.5 v -75.4 q 0,-18.46 -8.84,-27.56 -8.58,-9.1 -24.18,-9.1 -11.44,0 -20.28,4.68 -8.84,4.68 -13.78,14.04 -4.68,9.1 -4.68,23.14 V 300 Z"/>
  </g>
</svg>
